# xmcd
#
# Track frame offsets: 
#        183
#        25830
#        35748
#        56848
#        65773
#        78350
#        94025
#        106633
#        117310
#        128955
#        140725
#        153773
#        168060
#        177913
#        187860
#        200415
#
# Disc length: 2828 seconds
#
# Revision: 1
# Processed by: cddbd v1.5.2PL0 Copyright (c) Steve Scherf et al.
# Submitted via: ExactAudioCopy v1.3
#
DISCID=d30b0a10
DTITLE=Various Artists (Priester) - Rock 'n' Roll Grand Prix Collectio
DTITLE=n Vol.06
DYEAR=1993
DGENRE=Rock and Roll
TTITLE0=Jerry Lee Lewis - Whole Lotta Shakin' Going On
TTITLE1=Little Richard - Ready Teddy
TTITLE2=Fats Domino - Jambalaya
TTITLE3=Duane Eddy - Because They're Young
TTITLE4=The Coasters - Poison Ivy
TTITLE5=Bo Diddley - Cops And Robbers
TTITLE6=Carl Perkins - Rock Island Line
TTITLE7=The Olympics - Western Movies
TTITLE8=Pat Boone - Speedy Gonzales
TTITLE9=The Markeys - Last Night
TTITLE10=Lloyd Price - Stagger Lee
TTITLE11=The Cleftones - This Little Girl Of Mine
TTITLE12=Del Shannon - Do You Wanna Dance
TTITLE13=The Ventures - Perfidia
TTITLE14=Bill Haley - Skinny Minnie
TTITLE15=Rusty York - Sugaree
EXTD=
EXTT0=
EXTT1=
EXTT2=
EXTT3=
EXTT4=
EXTT5=
EXTT6=
EXTT7=
EXTT8=
EXTT9=
EXTT10=
EXTT11=
EXTT12=
EXTT13=
EXTT14=
EXTT15=
PLAYORDER=
